<?xml version="1.0" encoding="UTF-8"?>
<svg id="Layer_2" data-name="Layer 2" xmlns="http://www.w3.org/2000/svg" xmlns:xlink="http://www.w3.org/1999/xlink" viewBox="0 0 887 198.23">
  <defs>
    <style>
      .cls-1 {
        fill: url(#linear-gradient);
      }

      .cls-2 {
        mask: url(#mask);
      }

      .cls-3 {
        filter: url(#luminosity-noclip);
      }

      .cls-4 {
        fill: #b0e1ff;
      }

      .cls-5 {
        font-family: Morganite-Book, Morganite;
        font-size: 124.22px;
        letter-spacing: .06em;
      }

      .cls-5, .cls-6 {
        fill: #fff;
      }

      .cls-7 {
        letter-spacing: .94em;
      }

      .cls-8 {
        letter-spacing: 1.01em;
      }

      .cls-9 {
        letter-spacing: 1.02em;
      }

      .cls-10 {
        letter-spacing: 1.02em;
      }

      .cls-6 {
        font-family: AllumiStd-Light, 'Allumi Std';
        font-size: 40px;
        font-weight: 300;
      }
    </style>
    <filter id="luminosity-noclip" x="-12.36" y="0" width="209.37" height="203.75" color-interpolation-filters="sRGB" filterUnits="userSpaceOnUse">
      <feFlood flood-color="#fff" result="bg"/>
      <feBlend in="SourceGraphic" in2="bg"/>
    </filter>
    <linearGradient id="linear-gradient" x1="92.32" y1="154.21" x2="92.32" y2="188.95" gradientUnits="userSpaceOnUse">
      <stop offset="0" stop-color="#fff"/>
      <stop offset="1" stop-color="#000"/>
    </linearGradient>
    <mask id="mask" x="-12.36" y="0" width="209.37" height="203.75" maskUnits="userSpaceOnUse">
      <g class="cls-3">
        <rect class="cls-1" x="-12.36" y="147.18" width="209.37" height="56.56"/>
      </g>
    </mask>
  </defs>
  <g id="Layer_1-2" data-name="Layer 1">
    <g>
      <text class="cls-6" transform="translate(201 158.11)"><tspan class="cls-9" x="0" y="0">TRINI</tspan><tspan class="cls-7" x="306.92" y="0">T</tspan><tspan class="cls-10" x="368.2" y="0">A</tspan><tspan class="cls-8" x="434.4" y="0">P</tspan><tspan class="cls-10" x="500.52" y="0">OLI</tspan></text>
      <text class="cls-5" transform="translate(198.52 106.64)"><tspan x="0" y="0">CENTRO PORTE FINESTRE</tspan></text>
      <g class="cls-2">
        <g>
          <polygon class="cls-4" points="0 198.23 32.87 198.18 107.02 170.9 106.91 170.9 106.91 153.67 77.07 153.67 77.07 170.9 0 198.23"/>
          <polygon class="cls-4" points="108.89 170.9 34.93 198.18 67.21 198.12 138.21 170.9 138.21 153.67 108.78 153.67 108.78 170.9 108.89 170.9"/>
          <polygon class="cls-4" points="140.08 170.9 69.26 198.12 101.97 198.06 170.03 170.9 170.03 153.67 140.08 153.67 140.08 170.9"/>
          <rect class="cls-4" x="140.19" y="103.91" width="29.84" height="47.88"/>
          <rect class="cls-4" x="77.07" y="103.91" width="29.95" height="47.88"/>
          <path class="cls-4" d="m138.32,46.29h-29.43V1.47c4.85-.99,9.76-1.47,14.66-1.47s9.88.5,14.77,1.5v44.79Z"/>
          <path class="cls-4" d="m170.03,46.29h-29.84V1.9c10.43,2.4,20.57,7.08,29.84,14.04v30.35Z"/>
          <rect class="cls-4" x="108.89" y="54.54" width="29.43" height="47.5"/>
          <rect class="cls-4" x="108.89" y="103.91" width="29.43" height="47.88"/>
          <rect class="cls-4" x="140.19" y="54.54" width="29.84" height="47.5"/>
          <path class="cls-4" d="m107.02,46.29h-29.95V15.94c9.3-6.99,19.48-11.67,29.95-14.07v44.42Z"/>
          <rect class="cls-4" x="77.07" y="54.54" width="29.95" height="47.5"/>
        </g>
      </g>
    </g>
  </g>
</svg>